<svg id="Filled" height="512" viewBox="0 0 512 512" width="512" xmlns="http://www.w3.org/2000/svg"><path d="m32 104h448v192h-448z" fill="#c3c6c7"/><path d="m64 24h160v48h-160z" fill="#c3c6c7"/><path d="m128 72h32v32h-32z" fill="#7e8589"/><g fill="#c3c6c7"><path d="m88 144h16v16h-16z"/><path d="m120 144h16v16h-16z"/><path d="m152 144h16v16h-16z"/><path d="m184 144h16v16h-16z"/><path d="m88 176h16v16h-16z"/><path d="m120 176h16v16h-16z"/><path d="m152 176h16v16h-16z"/><path d="m152 208h16v16h-16z"/></g><path d="m272 232h128v32h-128z" fill="#9aa3a8"/><path d="m288 168h32v32h-32z" fill="#9aa3a8"/><path d="m320 168h32v32h-32z" fill="#dadcde"/><path d="m352 168h32v32h-32z" fill="#9aa3a8"/><path d="m288 24h96v112h-96z" fill="#e9eef2"/><path d="m32 296h448v48h-448z" fill="#7e8589"/><path d="m80 328h352v160h-352z" fill="#606669"/><path d="m48 328h416v160h-416z" fill="#606669"/><path d="m80 328h88v160h-88z" fill="#606669"/><path d="m184 328h80v160h-80z" fill="#e9eef2"/><path d="m264 328h80v160h-80z" fill="#3dc285"/><path d="m344 328h80v160h-80z" fill="#e9eef2"/><path d="m32 424h448v64h-448z" fill="#c3c6c7"/><path d="m88 328h96v32h-96z" fill="#ffd33a"/><path d="m88 360h96v32h-96z" fill="#ffb632"/><path d="m88 392h96v32h-96z" fill="#ffd33a"/><path d="m96 136h128v96h-128z" fill="#606669"/><path d="m480 352a8 8 0 0 0 8-8v-240a8 8 0 0 0 -8-8h-88v-72a8 8 0 0 0 -8-8h-96a8 8 0 0 0 -8 8v72h-112v-16h56a8 8 0 0 0 8-8v-48a8 8 0 0 0 -8-8h-160a8 8 0 0 0 -8 8v48a8 8 0 0 0 8 8h56v16h-88a8 8 0 0 0 -8 8v240a8 8 0 0 0 8 8h8v64h-8a8 8 0 0 0 -8 8v64a8 8 0 0 0 8 8h448a8 8 0 0 0 8-8v-64a8 8 0 0 0 -8-8h-8v-64zm-184-320h80v96h-80zm-224 32v-32h144v32zm80 16v16h-16v-16zm-112 32h240v16h-8a8 8 0 0 0 0 16h128a8 8 0 0 0 0-16h-8v-16h80v176h-432zm432 368h-432v-48h432zm-416-64v-80h24v80zm120-48v16h-80v-16zm-80-16v-16h80v16zm80 48v16h-80v-16zm48-8a8 8 0 0 0 8-8v-48h24v80h-64v-80h24v48a8 8 0 0 0 8 8zm80 0a8 8 0 0 0 8-8v-48h24v80h-64v-80h24v48a8 8 0 0 0 8 8zm80 0a8 8 0 0 0 8-8v-48h24v80h-64v-80h24v48a8 8 0 0 0 8 8zm48 24v-80h24v80zm32-96h-416a8 8 0 0 0 -8 8v-24h432v24a8 8 0 0 0 -8-8z"/><path d="m224 128h-128a8 8 0 0 0 -8 8v96a8 8 0 0 0 8 8h128a8 8 0 0 0 8-8v-96a8 8 0 0 0 -8-8zm-104 96h-16v-16h16zm0-32h-16v-16h16zm0-32h-16v-16h16zm32 64h-16v-16h16zm0-32h-16v-16h16zm0-32h-16v-16h16zm32 64h-16v-16h16zm0-32h-16v-16h16zm0-32h-16v-16h16zm32 64h-16v-16h16zm0-32h-16v-16h16zm0-32h-16v-16h16z"/><path d="m400 224h-128a8 8 0 0 0 -8 8v32a8 8 0 0 0 8 8h128a8 8 0 0 0 8-8v-32a8 8 0 0 0 -8-8zm-8 32h-112v-16h112z"/><path d="m288 208h96a8 8 0 0 0 8-8v-32a8 8 0 0 0 -8-8h-96a8 8 0 0 0 -8 8v32a8 8 0 0 0 8 8zm72-32h16v16h-16zm-32 0h16v16h-16zm-32 0h16v16h-16z"/></svg>